<svg width="82" height="32" viewBox="0 0 82 32" fill="none" xmlns="http://www.w3.org/2000/svg">
<g clip-path="url(#clip0_381_107)">
<path d="M45.8256 10.3409C45.4873 10.0685 45.0708 9.91135 44.6369 9.89243C44.203 9.87352 43.7744 9.9938 43.4137 10.2357L42.1842 11.0556C41.1549 10.8201 40.2129 10.2991 39.4664 9.55234C38.7198 8.80559 38.1989 7.86341 37.9634 6.83395L38.7831 5.60412C39.025 5.24333 39.1452 4.81466 39.1263 4.38068C39.1074 3.94669 38.9503 3.53011 38.678 3.19174L37.6766 1.93909C37.4745 1.68641 37.2158 1.48495 36.9212 1.3511C36.6267 1.21725 36.3048 1.15477 35.9816 1.16875C35.6584 1.18272 35.3431 1.27276 35.0612 1.43153C34.7794 1.59031 34.5389 1.81335 34.3595 2.08253L33.5561 3.28872C33.1784 3.8543 32.9439 4.50329 32.8729 5.17971C32.802 5.85613 32.8966 6.53967 33.1486 7.17135C33.9373 9.13267 35.1145 10.9142 36.6093 12.4087C38.1041 13.9033 39.8856 15.08 41.8468 15.8682C42.4784 16.1203 43.1618 16.2149 43.838 16.1439C44.5143 16.0729 45.1632 15.8384 45.7286 15.4607L46.9345 14.6571C47.2037 14.4775 47.4267 14.2371 47.5854 13.9551C47.7441 13.6732 47.8341 13.3578 47.8481 13.0346C47.8621 12.7113 47.7996 12.3893 47.6658 12.0947C47.532 11.8002 47.3306 11.5413 47.0779 11.3392L45.8256 10.3409Z" fill="#AEAEAE"/>
<path d="M40.9333 4.68774C41.8338 4.68819 42.6973 5.0461 43.3341 5.68285C43.9708 6.3196 44.3287 7.18308 44.3292 8.08358C44.3292 8.19408 44.3731 8.30006 44.4512 8.3782C44.5293 8.45635 44.6353 8.50024 44.7458 8.50024C44.8563 8.50024 44.9623 8.45635 45.0405 8.3782C45.1186 8.30006 45.1625 8.19408 45.1625 8.08358C45.1621 6.96207 44.7163 5.88662 43.9233 5.09359C43.1303 4.30057 42.0548 3.85485 40.9333 3.85441C40.8228 3.85441 40.7168 3.89831 40.6387 3.97645C40.5606 4.05459 40.5167 4.16057 40.5167 4.27108C40.5167 4.38158 40.5606 4.48757 40.6387 4.56571C40.7168 4.64385 40.8228 4.68774 40.9333 4.68774Z" fill="#AEAEAE"/>
<path d="M40.9333 1.83333C42.5904 1.8351 44.1791 2.49415 45.3508 3.66587C46.5225 4.83759 47.1816 6.42627 47.1833 8.08333C47.1833 8.19384 47.2272 8.29982 47.3054 8.37796C47.3835 8.4561 47.4895 8.5 47.6 8.5C47.7105 8.5 47.8165 8.4561 47.8946 8.37796C47.9728 8.29982 48.0167 8.19384 48.0167 8.08333C48.0145 6.20539 47.2675 4.405 45.9396 3.0771C44.6117 1.74919 42.8113 1.00221 40.9333 1C40.8228 1 40.7168 1.0439 40.6387 1.12204C40.5606 1.20018 40.5167 1.30616 40.5167 1.41667C40.5167 1.52717 40.5606 1.63315 40.6387 1.71129C40.7168 1.78943 40.8228 1.83333 40.9333 1.83333Z" fill="#AEAEAE"/>
</g>
<path d="M19.9811 28H18.9611V20.56H14.4011V28H13.3811V19.6H19.9811V28ZM22.5343 27.328C22.0063 26.784 21.7423 26.108 21.7423 25.3C21.7423 24.484 22.0063 23.812 22.5343 23.284C23.0703 22.748 23.7663 22.48 24.6223 22.48C25.4783 22.48 26.1703 22.748 26.6983 23.284C27.2343 23.812 27.5023 24.484 27.5023 25.3C27.5023 26.116 27.2343 26.792 26.6983 27.328C26.1703 27.856 25.4783 28.12 24.6223 28.12C23.7743 28.12 23.0783 27.856 22.5343 27.328ZM23.2903 23.92C22.9383 24.272 22.7623 24.732 22.7623 25.3C22.7623 25.868 22.9343 26.328 23.2783 26.68C23.6303 27.04 24.0783 27.22 24.6223 27.22C25.1663 27.22 25.6103 27.044 25.9543 26.692C26.3063 26.332 26.4823 25.868 26.4823 25.3C26.4823 24.748 26.3063 24.288 25.9543 23.92C25.6103 23.56 25.1663 23.38 24.6223 23.38C24.0783 23.38 23.6343 23.56 23.2903 23.92ZM30.6754 28.12C30.2674 28.12 29.8354 28.052 29.3794 27.916C28.9394 27.772 28.6274 27.596 28.4434 27.388L28.9354 26.668C29.1514 26.844 29.4074 26.988 29.7034 27.1C30.0074 27.204 30.2834 27.256 30.5314 27.256C30.9474 27.256 31.2874 27.176 31.5514 27.016C31.8154 26.848 31.9474 26.632 31.9474 26.368C31.9474 26.144 31.8514 25.972 31.6594 25.852C31.4754 25.732 31.2194 25.672 30.8914 25.672H29.9794V24.892H30.8314C31.1034 24.892 31.3274 24.82 31.5034 24.676C31.6794 24.524 31.7674 24.34 31.7674 24.124C31.7674 23.884 31.6634 23.696 31.4554 23.56C31.2474 23.416 30.9674 23.344 30.6154 23.344C30.0474 23.344 29.5074 23.544 28.9954 23.944L28.6234 23.2C28.8394 22.976 29.1394 22.8 29.5234 22.672C29.9154 22.544 30.3274 22.48 30.7594 22.48C31.3994 22.48 31.8954 22.608 32.2474 22.864C32.6074 23.12 32.7874 23.476 32.7874 23.932C32.7874 24.556 32.4714 24.98 31.8394 25.204V25.228C32.1914 25.268 32.4674 25.408 32.6674 25.648C32.8674 25.88 32.9674 26.164 32.9674 26.5C32.9674 26.996 32.7554 27.392 32.3314 27.688C31.9154 27.976 31.3634 28.12 30.6754 28.12ZM34.4304 28V22.6C34.4704 22.6 34.5264 22.6 34.5984 22.6C34.6704 22.592 34.7744 22.588 34.9104 22.588C35.0464 22.58 35.1704 22.576 35.2824 22.576C35.8744 22.56 36.2424 22.552 36.3864 22.552C37.9384 22.552 38.7144 23.016 38.7144 23.944C38.7144 24.264 38.6144 24.54 38.4144 24.772C38.2144 24.996 37.9544 25.132 37.6344 25.18V25.204C38.4744 25.356 38.8944 25.78 38.8944 26.476C38.8944 27.524 38.0664 28.048 36.4104 28.048C36.3304 28.048 35.9784 28.04 35.3544 28.024C35.2344 28.024 35.1024 28.02 34.9584 28.012C34.8144 28.012 34.7024 28.008 34.6224 28C34.5424 28 34.4784 28 34.4304 28ZM36.5424 25.576H35.3904V27.232C35.9664 27.256 36.3344 27.268 36.4944 27.268C37.4144 27.268 37.8744 26.98 37.8744 26.404C37.8744 25.852 37.4304 25.576 36.5424 25.576ZM36.4584 23.332C36.2264 23.332 35.8704 23.344 35.3904 23.368V24.976H36.6024C36.9304 24.976 37.1944 24.9 37.3944 24.748C37.5944 24.596 37.6944 24.392 37.6944 24.136C37.6944 23.6 37.2824 23.332 36.4584 23.332ZM40.7921 27.328C40.2641 26.784 40.0001 26.108 40.0001 25.3C40.0001 24.484 40.2641 23.812 40.7921 23.284C41.3281 22.748 42.0241 22.48 42.8801 22.48C43.7361 22.48 44.4281 22.748 44.9561 23.284C45.4921 23.812 45.7601 24.484 45.7601 25.3C45.7601 26.116 45.4921 26.792 44.9561 27.328C44.4281 27.856 43.7361 28.12 42.8801 28.12C42.0321 28.12 41.3361 27.856 40.7921 27.328ZM41.5481 23.92C41.1961 24.272 41.0201 24.732 41.0201 25.3C41.0201 25.868 41.1921 26.328 41.5361 26.68C41.8881 27.04 42.3361 27.22 42.8801 27.22C43.4241 27.22 43.8681 27.044 44.2121 26.692C44.5641 26.332 44.7401 25.868 44.7401 25.3C44.7401 24.748 44.5641 24.288 44.2121 23.92C43.8681 23.56 43.4241 23.38 42.8801 23.38C42.3361 23.38 41.8921 23.56 41.5481 23.92ZM52.0653 28H51.1053V25.72H48.1053V28H47.1453V22.6H48.1053V24.82H51.1053V22.6H52.0653V28ZM57.8815 23.98L54.7615 28H53.8015V22.6H54.7615V26.62L57.8815 22.6H58.8415V28H57.8815V23.98ZM61.8827 23.56H59.9027V22.6H64.8227V23.56H62.8427V28H61.8827V23.56ZM67.6958 28H65.8718V22.6H66.8318V24.22H67.8158C68.5518 24.22 69.0918 24.388 69.4358 24.724C69.7798 25.052 69.9518 25.504 69.9518 26.08C69.9518 26.624 69.7718 27.08 69.4118 27.448C69.0518 27.816 68.4798 28 67.6958 28ZM67.6358 25.12H66.8318V27.1H67.6238C68.4958 27.1 68.9318 26.772 68.9318 26.116C68.9318 25.452 68.4998 25.12 67.6358 25.12Z" fill="#AEAEAE"/>
<defs>
<clipPath id="clip0_381_107">
<rect width="81.75" height="18" fill="white"/>
</clipPath>
</defs>
</svg>
