<svg width="82" height="32" viewBox="0 0 82 32" fill="none" xmlns="http://www.w3.org/2000/svg">
<g clip-path="url(#clip0_381_107)">
<path d="M45.8256 10.3409C45.4873 10.0685 45.0708 9.91135 44.6369 9.89243C44.203 9.87352 43.7744 9.9938 43.4137 10.2357L42.1842 11.0556C41.1549 10.8201 40.2129 10.2991 39.4664 9.55234C38.7198 8.80559 38.1989 7.86341 37.9634 6.83395L38.7831 5.60412C39.025 5.24333 39.1452 4.81466 39.1263 4.38068C39.1074 3.94669 38.9503 3.53011 38.678 3.19174L37.6766 1.93909C37.4745 1.68641 37.2158 1.48495 36.9212 1.3511C36.6267 1.21725 36.3048 1.15477 35.9816 1.16875C35.6584 1.18272 35.3431 1.27276 35.0612 1.43153C34.7794 1.59031 34.5389 1.81335 34.3595 2.08253L33.5561 3.28872C33.1784 3.8543 32.9439 4.50329 32.8729 5.17971C32.802 5.85613 32.8966 6.53967 33.1486 7.17135C33.9373 9.13267 35.1145 10.9142 36.6093 12.4087C38.1041 13.9033 39.8856 15.08 41.8468 15.8682C42.4784 16.1203 43.1618 16.2149 43.838 16.1439C44.5143 16.0729 45.1632 15.8384 45.7286 15.4607L46.9345 14.6571C47.2037 14.4775 47.4267 14.2371 47.5854 13.9551C47.7441 13.6732 47.8341 13.3578 47.8481 13.0346C47.8621 12.7113 47.7996 12.3893 47.6658 12.0947C47.532 11.8002 47.3306 11.5413 47.0779 11.3392L45.8256 10.3409Z" fill="#AEAEAE"/>
<path d="M40.9333 4.68774C41.8338 4.68819 42.6973 5.0461 43.3341 5.68285C43.9708 6.3196 44.3287 7.18308 44.3292 8.08358C44.3292 8.19408 44.3731 8.30006 44.4512 8.3782C44.5293 8.45634 44.6353 8.50024 44.7458 8.50024C44.8563 8.50024 44.9623 8.45634 45.0405 8.3782C45.1186 8.30006 45.1625 8.19408 45.1625 8.08358C45.1621 6.96207 44.7163 5.88662 43.9233 5.09359C43.1303 4.30057 42.0548 3.85485 40.9333 3.85441C40.8228 3.85441 40.7168 3.89831 40.6387 3.97645C40.5606 4.05459 40.5167 4.16057 40.5167 4.27108C40.5167 4.38158 40.5606 4.48757 40.6387 4.56571C40.7168 4.64385 40.8228 4.68774 40.9333 4.68774Z" fill="#AEAEAE"/>
<path d="M40.9333 1.83333C42.5904 1.8351 44.1791 2.49415 45.3508 3.66587C46.5225 4.83759 47.1816 6.42627 47.1833 8.08333C47.1833 8.19384 47.2272 8.29982 47.3054 8.37796C47.3835 8.4561 47.4895 8.5 47.6 8.5C47.7105 8.5 47.8165 8.4561 47.8946 8.37796C47.9728 8.29982 48.0167 8.19384 48.0167 8.08333C48.0145 6.20539 47.2675 4.405 45.9396 3.0771C44.6117 1.74919 42.8113 1.00221 40.9333 1C40.8228 1 40.7168 1.0439 40.6387 1.12204C40.5606 1.20018 40.5167 1.30616 40.5167 1.41667C40.5167 1.52717 40.5606 1.63315 40.6387 1.71129C40.7168 1.78943 40.8228 1.83333 40.9333 1.83333Z" fill="#AEAEAE"/>
</g>
<path d="M13.6295 28H12.6095V20.56H8.04953V28H7.02953V19.6H13.6295V28ZM20.0107 26.656L20.3107 27.412C19.7907 27.884 19.1147 28.12 18.2827 28.12C17.4027 28.12 16.7027 27.864 16.1827 27.352C15.6547 26.84 15.3907 26.156 15.3907 25.3C15.3907 24.492 15.6387 23.82 16.1347 23.284C16.6227 22.748 17.3027 22.48 18.1747 22.48C18.8947 22.48 19.4907 22.712 19.9627 23.176C20.4427 23.632 20.6827 24.224 20.6827 24.952C20.6827 25.184 20.6627 25.4 20.6227 25.6H16.4707C16.5107 26.104 16.6987 26.5 17.0347 26.788C17.3787 27.076 17.8187 27.22 18.3547 27.22C19.0587 27.22 19.6107 27.032 20.0107 26.656ZM18.1267 23.38C17.6547 23.38 17.2627 23.512 16.9507 23.776C16.6467 24.04 16.4667 24.388 16.4107 24.82H19.6867C19.6627 24.372 19.5107 24.02 19.2307 23.764C18.9587 23.508 18.5907 23.38 18.1267 23.38ZM22.9451 30.4H21.9851V22.6H22.9451V23.236C23.1371 23.012 23.4011 22.832 23.7371 22.696C24.0731 22.552 24.4211 22.48 24.7811 22.48C25.5491 22.48 26.1531 22.736 26.5931 23.248C27.0491 23.752 27.2771 24.408 27.2771 25.216C27.2771 26.04 27.0171 26.732 26.4971 27.292C25.9851 27.844 25.3091 28.12 24.4691 28.12C23.8211 28.12 23.3131 27.996 22.9451 27.748V30.4ZM24.5051 23.38C23.8651 23.38 23.3451 23.628 22.9451 24.124V26.8C23.3691 27.08 23.8491 27.22 24.3851 27.22C24.9531 27.22 25.4051 27.04 25.7411 26.68C26.0851 26.312 26.2571 25.836 26.2571 25.252C26.2571 24.684 26.1011 24.232 25.7891 23.896C25.4771 23.552 25.0491 23.38 24.5051 23.38ZM32.9131 26.656L33.2131 27.412C32.6931 27.884 32.0171 28.12 31.1851 28.12C30.3051 28.12 29.6051 27.864 29.0851 27.352C28.5571 26.84 28.2931 26.156 28.2931 25.3C28.2931 24.492 28.5411 23.82 29.0371 23.284C29.5251 22.748 30.2051 22.48 31.0771 22.48C31.7971 22.48 32.3931 22.712 32.8651 23.176C33.3451 23.632 33.5851 24.224 33.5851 24.952C33.5851 25.184 33.5651 25.4 33.5251 25.6H29.3731C29.4131 26.104 29.6011 26.5 29.9371 26.788C30.2811 27.076 30.7211 27.22 31.2571 27.22C31.9611 27.22 32.5131 27.032 32.9131 26.656ZM31.0291 23.38C30.5571 23.38 30.1651 23.512 29.8531 23.776C29.5491 24.04 29.3691 24.388 29.3131 24.82H32.5891C32.5651 24.372 32.4131 24.02 32.1331 23.764C31.8611 23.508 31.4931 23.38 31.0291 23.38ZM36.6754 28.12C36.2674 28.12 35.8354 28.052 35.3794 27.916C34.9394 27.772 34.6274 27.596 34.4434 27.388L34.9354 26.668C35.1514 26.844 35.4074 26.988 35.7034 27.1C36.0074 27.204 36.2834 27.256 36.5314 27.256C36.9474 27.256 37.2874 27.176 37.5514 27.016C37.8154 26.848 37.9474 26.632 37.9474 26.368C37.9474 26.144 37.8514 25.972 37.6594 25.852C37.4754 25.732 37.2194 25.672 36.8914 25.672H35.9794V24.892H36.8314C37.1034 24.892 37.3274 24.82 37.5034 24.676C37.6794 24.524 37.7674 24.34 37.7674 24.124C37.7674 23.884 37.6634 23.696 37.4554 23.56C37.2474 23.416 36.9674 23.344 36.6154 23.344C36.0474 23.344 35.5074 23.544 34.9954 23.944L34.6234 23.2C34.8394 22.976 35.1394 22.8 35.5234 22.672C35.9154 22.544 36.3274 22.48 36.7594 22.48C37.3994 22.48 37.8954 22.608 38.2474 22.864C38.6074 23.12 38.7874 23.476 38.7874 23.932C38.7874 24.556 38.4714 24.98 37.8394 25.204V25.228C38.1914 25.268 38.4674 25.408 38.6674 25.648C38.8674 25.88 38.9674 26.164 38.9674 26.5C38.9674 26.996 38.7554 27.392 38.3314 27.688C37.9154 27.976 37.3634 28.12 36.6754 28.12ZM40.4304 28V22.6C40.4704 22.6 40.5264 22.6 40.5984 22.6C40.6704 22.592 40.7744 22.588 40.9104 22.588C41.0464 22.58 41.1704 22.576 41.2824 22.576C41.8744 22.56 42.2424 22.552 42.3864 22.552C43.9384 22.552 44.7144 23.016 44.7144 23.944C44.7144 24.264 44.6144 24.54 44.4144 24.772C44.2144 24.996 43.9544 25.132 43.6344 25.18V25.204C44.4744 25.356 44.8944 25.78 44.8944 26.476C44.8944 27.524 44.0664 28.048 42.4104 28.048C42.3304 28.048 41.9784 28.04 41.3544 28.024C41.2344 28.024 41.1024 28.02 40.9584 28.012C40.8144 28.012 40.7024 28.008 40.6224 28C40.5424 28 40.4784 28 40.4304 28ZM42.5424 25.576H41.3904V27.232C41.9664 27.256 42.3344 27.268 42.4944 27.268C43.4144 27.268 43.8744 26.98 43.8744 26.404C43.8744 25.852 43.4304 25.576 42.5424 25.576ZM42.4584 23.332C42.2264 23.332 41.8704 23.344 41.3904 23.368V24.976H42.6024C42.9304 24.976 43.1944 24.9 43.3944 24.748C43.5944 24.596 43.6944 24.392 43.6944 24.136C43.6944 23.6 43.2824 23.332 42.4584 23.332ZM46.7921 27.328C46.2641 26.784 46.0001 26.108 46.0001 25.3C46.0001 24.484 46.2641 23.812 46.7921 23.284C47.3281 22.748 48.0241 22.48 48.8801 22.48C49.7361 22.48 50.4281 22.748 50.9561 23.284C51.4921 23.812 51.7601 24.484 51.7601 25.3C51.7601 26.116 51.4921 26.792 50.9561 27.328C50.4281 27.856 49.7361 28.12 48.8801 28.12C48.0321 28.12 47.3361 27.856 46.7921 27.328ZM47.5481 23.92C47.1961 24.272 47.0201 24.732 47.0201 25.3C47.0201 25.868 47.1921 26.328 47.5361 26.68C47.8881 27.04 48.3361 27.22 48.8801 27.22C49.4241 27.22 49.8681 27.044 50.2121 26.692C50.5641 26.332 50.7401 25.868 50.7401 25.3C50.7401 24.748 50.5641 24.288 50.2121 23.92C49.8681 23.56 49.4241 23.38 48.8801 23.38C48.3361 23.38 47.8921 23.56 47.5481 23.92ZM58.0653 28H57.1053V25.72H54.1053V28H53.1453V22.6H54.1053V24.82H57.1053V22.6H58.0653V28ZM63.8815 23.98L60.7615 28H59.8015V22.6H60.7615V26.62L63.8815 22.6H64.8415V28H63.8815V23.98ZM67.8827 23.56H65.9027V22.6H70.8227V23.56H68.8427V28H67.8827V23.56ZM73.6958 28H71.8718V22.6H72.8318V24.22H73.8158C74.5518 24.22 75.0918 24.388 75.4358 24.724C75.7798 25.052 75.9518 25.504 75.9518 26.08C75.9518 26.624 75.7718 27.08 75.4118 27.448C75.0518 27.816 74.4798 28 73.6958 28ZM73.6358 25.12H72.8318V27.1H73.6238C74.4958 27.1 74.9318 26.772 74.9318 26.116C74.9318 25.452 74.4998 25.12 73.6358 25.12Z" fill="#AEAEAE"/>
<defs>
<clipPath id="clip0_381_107">
<rect width="81.75" height="18" fill="white"/>
</clipPath>
</defs>
</svg>
