<svg width="82" height="32" viewBox="0 0 82 32" fill="none" xmlns="http://www.w3.org/2000/svg">
<g clip-path="url(#clip0_381_101)">
<path fill-rule="evenodd" clip-rule="evenodd" d="M40.9219 16.9543C39.3517 16.9543 38.622 16.7241 37.3536 15.8032C36.5513 16.8392 34.0107 17.6488 33.8999 16.2637C33.8999 15.2238 33.6707 14.3452 33.4109 13.3859C33.1015 12.2041 32.75 10.888 32.75 8.98101C32.75 4.42646 36.4711 1 40.8799 1C45.2925 1 48.75 4.59529 48.75 9.02322C48.7571 11.1169 47.9368 13.1279 46.4692 14.6149C45.0016 16.1018 43.0065 16.9432 40.9219 16.9543ZM40.9868 4.93679C38.8398 4.82551 37.1664 6.31811 36.7958 8.6587C36.4902 10.5964 37.0327 12.9562 37.495 13.0789C37.7166 13.1327 38.2743 12.6799 38.622 12.3307C39.1969 12.7296 39.8663 12.9691 40.5628 13.0252C41.6322 13.0769 42.6792 12.7051 43.4786 11.9898C44.278 11.2744 44.766 10.2726 44.8378 9.19972C44.8796 8.12459 44.4995 7.07595 43.7793 6.27942C43.0591 5.48289 42.0564 5.00215 40.9868 4.94062V4.93679Z" fill="#AEAEAE"/>
</g>
<path d="M32.3542 28H31.3342V19.6H32.3662L35.5222 23.908L38.5462 19.6H39.5182V28H38.4982V21.208L35.5222 25.384H35.3662L32.3542 21.244V28ZM41.9254 23.74L41.6734 22.972C42.2094 22.644 42.8094 22.48 43.4734 22.48C44.2014 22.48 44.7294 22.66 45.0574 23.02C45.3854 23.38 45.5494 23.936 45.5494 24.688V28H44.6374V27.304C44.2134 27.824 43.6374 28.084 42.9094 28.084C42.4134 28.084 42.0134 27.936 41.7094 27.64C41.4054 27.336 41.2534 26.928 41.2534 26.416C41.2534 25.888 41.4414 25.472 41.8174 25.168C42.1934 24.856 42.6854 24.7 43.2934 24.7C43.8614 24.7 44.3094 24.816 44.6374 25.048C44.6374 24.44 44.5534 24.004 44.3854 23.74C44.2174 23.476 43.8934 23.344 43.4134 23.344C42.9254 23.344 42.4294 23.476 41.9254 23.74ZM43.2454 27.22C43.7814 27.22 44.2454 26.988 44.6374 26.524V25.84C44.3014 25.6 43.8974 25.48 43.4254 25.48C43.0974 25.48 42.8214 25.56 42.5974 25.72C42.3814 25.872 42.2734 26.088 42.2734 26.368C42.2734 26.632 42.3574 26.84 42.5254 26.992C42.7014 27.144 42.9414 27.22 43.2454 27.22ZM50.841 22.6H51.957L50.025 25.204L52.077 28H50.901L49.317 25.816L47.709 28H46.593L48.633 25.252L46.713 22.6H47.889L49.353 24.64L50.841 22.6Z" fill="#AEAEAE"/>
<defs>
<clipPath id="clip0_381_101">
<rect width="81.75" height="18" fill="white"/>
</clipPath>
</defs>
</svg>
