<svg width="222" height="29" viewBox="0 0 222 29" fill="none" xmlns="http://www.w3.org/2000/svg">
<g clip-path="url(#clip0_374_182)">
<path d="M27.2505 9.28885H20.0701V21.4486H16.7153V6.17542H30.6053V21.4486H27.2505V9.28885Z" fill="#FF4A37"/>
<path d="M33.8698 6.17533H37.2246V7.84951C37.9113 7.20334 38.6469 6.70403 39.4317 6.35156C40.2164 5.9991 41.0993 5.82288 42.0802 5.82288C43.1789 5.82288 44.1893 6.02848 45.1114 6.43968C46.0531 6.8313 46.8573 7.38936 47.5244 8.11386C48.1914 8.81878 48.7114 9.6608 49.0841 10.6398C49.4569 11.5993 49.6432 12.6469 49.6432 13.7825C49.6432 14.9574 49.4372 16.0344 49.0253 17.0134C48.6329 17.9729 48.0933 18.8051 47.4067 19.51C46.7201 20.1954 45.8961 20.7338 44.9348 21.1255C43.9931 21.5171 42.9827 21.7129 41.9036 21.7129C40.9423 21.7129 40.0791 21.5661 39.314 21.2723C38.5488 20.9786 37.8524 20.5674 37.2246 20.0388V27.3229H33.8698V6.17533ZM41.4034 18.5995C42.0705 18.5995 42.6884 18.4918 43.2573 18.2764C43.8459 18.061 44.356 17.7478 44.7876 17.3366C45.2192 16.9058 45.5527 16.3967 45.7882 15.8092C46.0432 15.2022 46.1708 14.5168 46.1708 13.7532C46.1708 13.0483 46.0628 12.4021 45.847 11.8147C45.6312 11.2076 45.3173 10.6985 44.9053 10.2874C44.5129 9.85654 44.0421 9.52365 43.4928 9.28877C42.9434 9.05379 42.3353 8.93626 41.6682 8.93626C40.648 8.93626 39.7456 9.181 38.9608 9.67057C38.1957 10.1601 37.617 10.7475 37.2246 11.4329V16.0735C37.617 16.896 38.1761 17.5225 38.902 17.9534C39.6279 18.3842 40.4617 18.5995 41.4034 18.5995Z" fill="#FF4A37"/>
<path d="M51.3864 13.7825C51.3864 12.6273 51.5826 11.5699 51.975 10.6105C52.3674 9.63142 52.9265 8.7894 53.6524 8.08449C54.3783 7.37957 55.2415 6.8313 56.2421 6.43968C57.2427 6.02848 58.3511 5.82288 59.5674 5.82288C60.7642 5.82288 61.8628 6.02848 62.8634 6.43968C63.8836 6.8313 64.7565 7.37957 65.4824 8.08449C66.2083 8.7894 66.7675 9.63142 67.1599 10.6105C67.5719 11.5699 67.7778 12.6273 67.7778 13.7825C67.7778 14.9379 67.5719 16.005 67.1599 16.9841C66.7675 17.9436 66.2083 18.7757 65.4824 19.4807C64.7565 20.1856 63.8836 20.7338 62.8634 21.1255C61.8628 21.5171 60.7642 21.7129 59.5674 21.7129C58.3707 21.7129 57.272 21.5171 56.2715 21.1255C55.2709 20.7338 54.4077 20.1856 53.6818 19.4807C52.9559 18.7757 52.387 17.9436 51.975 16.9841C51.5826 16.005 51.3864 14.9379 51.3864 13.7825ZM54.8589 13.7825C54.8589 14.4679 54.9669 15.1043 55.1827 15.6917C55.4181 16.2791 55.7418 16.7882 56.1538 17.219C56.5658 17.6498 57.0562 17.9925 57.6252 18.2471C58.2137 18.482 58.8612 18.5995 59.5674 18.5995C60.2737 18.5995 60.9113 18.4918 61.4802 18.2764C62.0688 18.0414 62.5691 17.7184 62.9811 17.3072C63.3931 16.8764 63.7168 16.3673 63.9522 15.7799C64.1876 15.1924 64.3053 14.5266 64.3053 13.7825C64.3053 13.0385 64.1778 12.3728 63.9228 11.7853C63.6874 11.1783 63.3539 10.6692 62.9222 10.258C62.4906 9.82716 61.9903 9.50412 61.4214 9.28877C60.8524 9.05379 60.2345 8.93626 59.5674 8.93626C58.9004 8.93626 58.2726 9.05379 57.684 9.28877C57.1151 9.50412 56.6149 9.82716 56.1832 10.258C55.7713 10.6692 55.4475 11.1783 55.2121 11.7853C54.9766 12.3728 54.8589 13.0385 54.8589 13.7825Z" fill="#FF4A37"/>
<path d="M68.6736 18.3352H70.4452C71.1342 17.4541 71.5968 16.4457 71.833 15.31C72.0693 14.1743 72.1873 12.8917 72.1873 11.4623V6.17542H84.5297V18.3352H86.6852V24.9439H83.5553V21.4486H71.8035V24.9439H68.6736V18.3352ZM81.1636 18.3352V9.28885H75.3762V13.1952C75.3762 14.1351 75.2483 15.075 74.9924 16.0149C74.7365 16.9352 74.3822 17.7087 73.9295 18.3352H81.1636Z" fill="#3981F1"/>
<path d="M87.3682 13.7825C87.3682 12.6273 87.565 11.5699 87.9588 10.6105C88.3524 9.63142 88.9135 8.7894 89.6418 8.08449C90.3701 7.37957 91.2363 6.8313 92.2401 6.43968C93.2441 6.02848 94.3563 5.82288 95.5767 5.82288C96.7774 5.82288 97.8798 6.02848 98.8837 6.43968C99.9074 6.8313 100.783 7.37957 101.512 8.08449C102.24 8.7894 102.801 9.63142 103.195 10.6105C103.608 11.5699 103.815 12.6273 103.815 13.7825C103.815 14.9379 103.608 16.005 103.195 16.9841C102.801 17.9436 102.24 18.7757 101.512 19.4807C100.783 20.1856 99.9074 20.7338 98.8837 21.1255C97.8798 21.5171 96.7774 21.7129 95.5767 21.7129C94.376 21.7129 93.2736 21.5171 92.2697 21.1255C91.2657 20.7338 90.3996 20.1856 89.6713 19.4807C88.9429 18.7757 88.3721 17.9436 87.9588 16.9841C87.565 16.005 87.3682 14.9379 87.3682 13.7825ZM90.8524 13.7825C90.8524 14.4679 90.9606 15.1043 91.1771 15.6917C91.4134 16.2791 91.7382 16.7882 92.1515 17.219C92.565 17.6498 93.057 17.9925 93.628 18.2471C94.2185 18.482 94.8681 18.5995 95.5767 18.5995C96.2854 18.5995 96.9251 18.4918 97.496 18.2764C98.0865 18.0414 98.5884 17.7184 99.0019 17.3072C99.4152 16.8764 99.74 16.3673 99.9763 15.7799C100.212 15.1924 100.331 14.5266 100.331 13.7825C100.331 13.0385 100.203 12.3728 99.9467 11.7853C99.7105 11.1783 99.3759 10.6692 98.9428 10.258C98.5097 9.82716 98.0078 9.50412 97.4369 9.28877C96.866 9.05379 96.246 8.93626 95.5767 8.93626C94.9075 8.93626 94.2775 9.05379 93.687 9.28877C93.1162 9.50412 92.6141 9.82716 92.1811 10.258C91.7677 10.6692 91.4429 11.1783 91.2067 11.7853C90.9705 12.3728 90.8524 13.0385 90.8524 13.7825Z" fill="#3981F1"/>
<path d="M105.898 6.17542H109.264V12.3728L115.907 6.17542H120.307L112.836 13.0778L120.573 21.4486H116.262L110.386 15.1631L109.264 16.2498V21.4486H105.898V6.17542Z" fill="#3981F1"/>
<path d="M121.635 6.17542H136.104V9.28885H130.552V21.4486H127.187V9.28885H121.635V6.17542Z" fill="#3981F1"/>
<path d="M136.839 13.7825C136.839 12.6273 137.036 11.5699 137.431 10.6105C137.824 9.63142 138.385 8.7894 139.113 8.08449C139.841 7.37957 140.708 6.8313 141.712 6.43968C142.715 6.02848 143.828 5.82288 145.048 5.82288C146.249 5.82288 147.351 6.02848 148.355 6.43968C149.379 6.8313 150.254 7.37957 150.983 8.08449C151.711 8.7894 152.273 9.63142 152.666 10.6105C153.08 11.5699 153.286 12.6273 153.286 13.7825C153.286 14.9379 153.08 16.005 152.666 16.9841C152.273 17.9436 151.711 18.7757 150.983 19.4807C150.254 20.1856 149.379 20.7338 148.355 21.1255C147.351 21.5171 146.249 21.7129 145.048 21.7129C143.847 21.7129 142.745 21.5171 141.741 21.1255C140.737 20.7338 139.871 20.1856 139.143 19.4807C138.414 18.7757 137.844 17.9436 137.431 16.9841C137.036 16.005 136.839 14.9379 136.839 13.7825ZM140.324 13.7825C140.324 14.4679 140.433 15.1043 140.648 15.6917C140.885 16.2791 141.209 16.7882 141.623 17.219C142.036 17.6498 142.529 17.9925 143.099 18.2471C143.69 18.482 144.339 18.5995 145.048 18.5995C145.756 18.5995 146.397 18.4918 146.968 18.2764C147.558 18.0414 148.06 17.7184 148.474 17.3072C148.886 16.8764 149.212 16.3673 149.447 15.7799C149.684 15.1924 149.802 14.5266 149.802 13.7825C149.802 13.0385 149.674 12.3728 149.418 11.7853C149.182 11.1783 148.847 10.6692 148.414 10.258C147.981 9.82716 147.479 9.50412 146.908 9.28877C146.338 9.05379 145.717 8.93626 145.048 8.93626C144.379 8.93626 143.749 9.05379 143.159 9.28877C142.588 9.50412 142.085 9.82716 141.653 10.258C141.239 10.6692 140.914 11.1783 140.678 11.7853C140.442 12.3728 140.324 13.0385 140.324 13.7825Z" fill="#3981F1"/>
<path d="M155.343 6.17533H158.708V7.84951C159.397 7.20334 160.135 6.70403 160.923 6.35156C161.71 5.9991 162.596 5.82288 163.581 5.82288C164.683 5.82288 165.697 6.02848 166.622 6.43968C167.566 6.8313 168.374 7.38936 169.043 8.11386C169.712 8.81878 170.234 9.6608 170.608 10.6398C170.982 11.5993 171.169 12.6469 171.169 13.7825C171.169 14.9574 170.963 16.0344 170.549 17.0134C170.155 17.9729 169.614 18.8051 168.925 19.51C168.236 20.1954 167.409 20.7338 166.445 21.1255C165.5 21.5171 164.486 21.7129 163.403 21.7129C162.439 21.7129 161.572 21.5661 160.805 21.2723C160.037 20.9786 159.338 20.5674 158.708 20.0388V27.3229H155.343V6.17533ZM162.902 18.5995C163.571 18.5995 164.191 18.4918 164.762 18.2764C165.352 18.061 165.864 17.7478 166.297 17.3366C166.73 16.9058 167.065 16.3967 167.301 15.8092C167.557 15.2022 167.685 14.5168 167.685 13.7532C167.685 13.0483 167.576 12.4021 167.36 11.8147C167.144 11.2076 166.828 10.6985 166.415 10.2874C166.021 9.85654 165.549 9.52365 164.998 9.28877C164.446 9.05379 163.836 8.93626 163.167 8.93626C162.144 8.93626 161.238 9.181 160.451 9.67057C159.683 10.1601 159.103 10.7475 158.708 11.4329V16.0735C159.103 16.896 159.663 17.5225 160.392 17.9534C161.12 18.3842 161.957 18.5995 162.902 18.5995Z" fill="#3981F1"/>
<path d="M172.838 13.7825C172.838 12.6273 173.036 11.5699 173.429 10.6105C173.823 9.63142 174.384 8.7894 175.112 8.08449C175.84 7.37957 176.707 6.8313 177.71 6.43968C178.714 6.02848 179.827 5.82288 181.047 5.82288C182.247 5.82288 183.35 6.02848 184.354 6.43968C185.377 6.8313 186.254 7.37957 186.982 8.08449C187.71 8.7894 188.271 9.63142 188.665 10.6105C189.078 11.5699 189.285 12.6273 189.285 13.7825C189.285 14.9379 189.078 16.005 188.665 16.9841C188.271 17.9436 187.71 18.7757 186.982 19.4807C186.254 20.1856 185.377 20.7338 184.354 21.1255C183.35 21.5171 182.247 21.7129 181.047 21.7129C179.847 21.7129 178.744 21.5171 177.74 21.1255C176.736 20.7338 175.87 20.1856 175.142 19.4807C174.413 18.7757 173.843 17.9436 173.429 16.9841C173.036 16.005 172.838 14.9379 172.838 13.7825ZM176.322 13.7825C176.322 14.4679 176.431 15.1043 176.648 15.6917C176.884 16.2791 177.208 16.7882 177.622 17.219C178.035 17.6498 178.527 17.9925 179.099 18.2471C179.689 18.482 180.338 18.5995 181.047 18.5995C181.756 18.5995 182.395 18.4918 182.966 18.2764C183.557 18.0414 184.059 17.7184 184.472 17.3072C184.886 16.8764 185.21 16.3673 185.446 15.7799C185.683 15.1924 185.801 14.5266 185.801 13.7825C185.801 13.0385 185.673 12.3728 185.417 11.7853C185.18 11.1783 184.846 10.6692 184.413 10.258C183.98 9.82716 183.478 9.50412 182.907 9.28877C182.336 9.05379 181.716 8.93626 181.047 8.93626C180.378 8.93626 179.748 9.05379 179.158 9.28877C178.586 9.50412 178.084 9.82716 177.652 10.258C177.238 10.6692 176.914 11.1783 176.677 11.7853C176.441 12.3728 176.322 13.0385 176.322 13.7825Z" fill="#3981F1"/>
<path d="M191.376 6.17542H197.931C200.076 6.17542 201.691 6.47892 202.774 7.08594C203.856 7.69295 204.398 8.74054 204.398 10.2287C204.398 10.9336 204.24 11.5309 203.925 12.0203C203.61 12.5099 203.196 12.9505 202.685 13.342C203.413 13.6163 203.954 14.0764 204.309 14.7225C204.663 15.3492 204.84 16.0736 204.84 16.8961C204.84 18.4234 204.299 19.5689 203.216 20.3325C202.134 21.0766 200.608 21.4486 198.639 21.4486H191.376V6.17542ZM194.743 15.1337V18.4234H198.315C199.318 18.4234 200.076 18.2961 200.589 18.0415C201.1 17.787 201.356 17.3758 201.356 16.8079C201.356 16.2009 201.11 15.7701 200.618 15.5156C200.145 15.261 199.407 15.1337 198.404 15.1337H194.743ZM194.743 9.2007V12.2259H198.699C199.387 12.2259 199.929 12.0987 200.323 11.8441C200.717 11.5896 200.913 11.198 200.913 10.6692C200.913 10.0427 200.648 9.64127 200.116 9.46506C199.604 9.28885 198.846 9.2007 197.842 9.2007H194.743Z" fill="#3981F1"/>
</g>
<defs>
<clipPath id="clip0_374_182">
<rect width="188.125" height="28.6667" fill="white" transform="translate(16.7153)"/>
</clipPath>
</defs>
</svg>
