<svg width="103" height="37" viewBox="0 0 103 37" fill="none" xmlns="http://www.w3.org/2000/svg">
<rect width="102.636" height="37" rx="8" fill="#25D366"/>
<path d="M7.31783 27.5L8.58307 22.8777C7.80232 21.5247 7.39208 19.991 7.39283 18.4182C7.39508 13.5012 11.3963 9.5 16.3126 9.5C18.6983 9.50075 20.9378 10.43 22.6223 12.116C24.306 13.802 25.233 16.043 25.2323 18.4265C25.23 23.3442 21.2288 27.3455 16.3126 27.3455C14.8201 27.3447 13.3493 26.9705 12.0466 26.2595L7.31783 27.5ZM12.2656 24.6447C13.5226 25.391 14.7226 25.838 16.3096 25.8387C20.3955 25.8387 23.724 22.5132 23.7263 18.425C23.7278 14.3285 20.415 11.0075 16.3156 11.006C12.2266 11.006 8.90032 14.3315 8.89882 18.419C8.89807 20.0877 9.38707 21.3372 10.2083 22.6445L9.45907 25.3805L12.2656 24.6447ZM20.8058 20.5467C20.7503 20.4537 20.6018 20.3982 20.3783 20.2865C20.1555 20.1747 19.0598 19.6355 18.855 19.5612C18.651 19.487 18.5026 19.4495 18.3533 19.673C18.2048 19.8957 17.7773 20.3982 17.6476 20.5467C17.5178 20.6952 17.3873 20.714 17.1646 20.6022C16.9418 20.4905 16.2233 20.2557 15.3721 19.496C14.7098 18.905 14.2621 18.1752 14.1323 17.9517C14.0026 17.729 14.1188 17.6082 14.2298 17.4972C14.3303 17.3975 14.4526 17.237 14.5643 17.1065C14.6776 16.9775 14.7143 16.8845 14.7893 16.7352C14.8636 16.5867 14.8268 16.4562 14.7706 16.3445C14.7143 16.2335 14.2688 15.1362 14.0836 14.69C13.9021 14.2557 13.7183 14.3142 13.5818 14.3075L13.1543 14.3C13.0058 14.3 12.7643 14.3555 12.5603 14.579C12.3563 14.8025 11.7803 15.341 11.7803 16.4382C11.7803 17.5355 12.5791 18.5952 12.6901 18.7437C12.8018 18.8922 14.2613 21.1437 16.4971 22.109C17.0288 22.3385 17.4443 22.4757 17.7676 22.5785C18.3016 22.748 18.7875 22.724 19.1715 22.667C19.5998 22.6032 20.49 22.1277 20.676 21.6072C20.862 21.086 20.862 20.6397 20.8058 20.5467Z" fill="white"/>
<path d="M33.8745 21.4209L35.8569 13.0469H36.9643L37.2173 14.4414L35.1049 23H33.9155L33.8745 21.4209ZM32.8559 13.0469L34.4965 21.4209L34.3598 23H33.0337L30.8256 13.0469H32.8559ZM38.9604 21.3867L40.5805 13.0469H42.6108L40.4096 23H39.0835L38.9604 21.3867ZM37.5864 13.0469L39.5825 21.4551L39.5278 23H38.3383L36.2124 14.4346L36.4858 13.0469H37.5864ZM45.5229 12.5V23H43.5542V12.5H45.5229ZM45.2426 19.042H44.7026C44.7072 18.527 44.7755 18.0531 44.9077 17.6201C45.0398 17.1826 45.229 16.8044 45.4751 16.4854C45.7212 16.1618 46.0151 15.9111 46.3569 15.7334C46.7033 15.5557 47.0861 15.4668 47.5053 15.4668C47.8699 15.4668 48.2003 15.5192 48.4965 15.624C48.7973 15.7243 49.0548 15.8883 49.269 16.1162C49.4878 16.3395 49.6564 16.6335 49.7749 16.998C49.8934 17.3626 49.9526 17.8047 49.9526 18.3242V23H47.9702V18.3105C47.9702 17.9824 47.9223 17.7249 47.8266 17.5381C47.7355 17.3467 47.601 17.2122 47.4233 17.1348C47.2501 17.0527 47.0359 17.0117 46.7807 17.0117C46.4982 17.0117 46.2566 17.0641 46.0561 17.1689C45.8602 17.2738 45.7029 17.4196 45.5844 17.6064C45.4659 17.7887 45.3794 18.0029 45.3247 18.249C45.27 18.4951 45.2426 18.7594 45.2426 19.042ZM55.4419 21.332V18.0371C55.4419 17.8001 55.4031 17.5973 55.3256 17.4287C55.2482 17.2555 55.1274 17.1211 54.9633 17.0254C54.8038 16.9297 54.5965 16.8818 54.3413 16.8818C54.1225 16.8818 53.9334 16.9206 53.7739 16.998C53.6144 17.071 53.4913 17.1781 53.4047 17.3193C53.3182 17.4561 53.2749 17.6178 53.2749 17.8047H51.3061C51.3061 17.4902 51.379 17.1917 51.5249 16.9092C51.6707 16.6266 51.8826 16.3783 52.1606 16.1641C52.4386 15.9453 52.769 15.7744 53.1518 15.6514C53.5392 15.5283 53.9721 15.4668 54.4506 15.4668C55.0249 15.4668 55.5353 15.5625 55.9819 15.7539C56.4285 15.9453 56.7794 16.2324 57.0346 16.6152C57.2944 16.998 57.4243 17.4766 57.4243 18.0508V21.2158C57.4243 21.6214 57.4493 21.9541 57.4995 22.2139C57.5496 22.4691 57.6225 22.6924 57.7182 22.8838V23H55.729C55.6333 22.7995 55.5603 22.5488 55.5102 22.248C55.4646 21.9427 55.4419 21.6374 55.4419 21.332ZM55.7016 18.4951L55.7153 19.6094H54.6147C54.3549 19.6094 54.1294 19.639 53.938 19.6982C53.7465 19.7575 53.5893 19.8418 53.4663 19.9512C53.3432 20.056 53.2521 20.179 53.1928 20.3203C53.1381 20.4616 53.1108 20.6165 53.1108 20.7852C53.1108 20.9538 53.1495 21.1064 53.227 21.2432C53.3045 21.3753 53.4161 21.4801 53.562 21.5576C53.7078 21.6305 53.8787 21.667 54.0747 21.667C54.3709 21.667 54.6284 21.6077 54.8471 21.4893C55.0659 21.3708 55.2345 21.2249 55.353 21.0518C55.476 20.8786 55.5398 20.7145 55.5444 20.5596L56.0639 21.3936C55.991 21.5804 55.8908 21.7741 55.7631 21.9746C55.6401 22.1751 55.4829 22.3643 55.2915 22.542C55.1001 22.7152 54.8699 22.8587 54.601 22.9727C54.3322 23.082 54.0131 23.1367 53.644 23.1367C53.1746 23.1367 52.7485 23.0433 52.3657 22.8564C51.9874 22.665 51.6866 22.403 51.4633 22.0703C51.2446 21.7331 51.1352 21.3503 51.1352 20.9219C51.1352 20.5345 51.2081 20.1904 51.354 19.8896C51.4998 19.5889 51.714 19.3359 51.9965 19.1309C52.2837 18.9212 52.6414 18.764 53.0698 18.6592C53.4982 18.5498 53.9949 18.4951 54.56 18.4951H55.7016ZM62.5649 15.6035V16.998H58.2583V15.6035H62.5649ZM59.3247 13.7783H61.2934V20.7715C61.2934 20.9857 61.3208 21.1497 61.3755 21.2637C61.4347 21.3776 61.5213 21.4574 61.6352 21.5029C61.7491 21.5439 61.8927 21.5645 62.0659 21.5645C62.1889 21.5645 62.2983 21.5599 62.394 21.5508C62.4943 21.5371 62.5786 21.5234 62.6469 21.5098L62.6538 22.959C62.4852 23.0137 62.3029 23.057 62.1069 23.0889C61.9109 23.1208 61.6945 23.1367 61.4575 23.1367C61.0245 23.1367 60.6463 23.0661 60.3227 22.9248C60.0037 22.779 59.7576 22.5465 59.5844 22.2275C59.4113 21.9085 59.3247 21.4893 59.3247 20.9697V13.7783ZM67.685 20.9561C67.685 20.8148 67.644 20.6872 67.562 20.5732C67.4799 20.4593 67.3273 20.3545 67.104 20.2588C66.8852 20.1585 66.5685 20.0674 66.1538 19.9854C65.7801 19.9033 65.4314 19.8008 65.1079 19.6777C64.7889 19.5501 64.5109 19.3975 64.2739 19.2197C64.0415 19.042 63.8592 18.8324 63.727 18.5908C63.5949 18.3447 63.5288 18.0645 63.5288 17.75C63.5288 17.4401 63.5949 17.1484 63.727 16.875C63.8637 16.6016 64.0574 16.36 64.3081 16.1504C64.5633 15.9362 64.8732 15.7699 65.2378 15.6514C65.6069 15.5283 66.0216 15.4668 66.4819 15.4668C67.1245 15.4668 67.6759 15.5693 68.1362 15.7744C68.601 15.9795 68.9565 16.262 69.2026 16.6221C69.4532 16.9775 69.5786 17.3831 69.5786 17.8389H67.6098C67.6098 17.6475 67.5688 17.4766 67.4868 17.3262C67.4093 17.1712 67.2863 17.0505 67.1176 16.9639C66.9536 16.8727 66.7394 16.8271 66.4751 16.8271C66.2563 16.8271 66.0672 16.8659 65.9077 16.9434C65.7482 17.0163 65.6251 17.1165 65.5385 17.2441C65.4565 17.3672 65.4155 17.5039 65.4155 17.6543C65.4155 17.7682 65.4383 17.8708 65.4838 17.9619C65.534 18.0485 65.6137 18.1283 65.7231 18.2012C65.8325 18.2741 65.9738 18.3424 66.1469 18.4063C66.3247 18.4655 66.5434 18.5202 66.8032 18.5703C67.3364 18.6797 67.8126 18.8232 68.2319 19.001C68.6512 19.1742 68.9838 19.4111 69.2299 19.7119C69.476 20.0081 69.5991 20.3978 69.5991 20.8809C69.5991 21.209 69.5262 21.5098 69.3803 21.7832C69.2345 22.0566 69.0249 22.2959 68.7514 22.501C68.478 22.7015 68.1499 22.8587 67.7671 22.9727C67.3888 23.082 66.9627 23.1367 66.4887 23.1367C65.8006 23.1367 65.2172 23.0137 64.7387 22.7676C64.2648 22.5215 63.9047 22.2093 63.6587 21.8311C63.4171 21.4482 63.2963 21.0563 63.2963 20.6553H65.1626C65.1717 20.9242 65.24 21.1406 65.3676 21.3047C65.4998 21.4688 65.6661 21.5872 65.8667 21.6602C66.0717 21.7331 66.2928 21.7695 66.5297 21.7695C66.785 21.7695 66.9969 21.7354 67.1655 21.667C67.3341 21.5941 67.4617 21.4984 67.5483 21.3799C67.6394 21.2568 67.685 21.1156 67.685 20.9561ZM75.0473 14.749L72.3403 23H70.1596L73.8579 13.0469H75.2456L75.0473 14.749ZM77.2963 23L74.5825 14.749L74.3637 13.0469H75.7651L79.4838 23H77.2963ZM77.1733 19.2949V20.9014H71.9165V19.2949H77.1733ZM82.0337 17.0254V25.8437H80.0649V15.6035H81.8901L82.0337 17.0254ZM86.7163 19.2197V19.3633C86.7163 19.901 86.6525 20.4001 86.5249 20.8604C86.4018 21.3206 86.2195 21.7217 85.978 22.0635C85.7365 22.4007 85.4357 22.665 85.0756 22.8564C84.7202 23.0433 84.31 23.1367 83.8452 23.1367C83.394 23.1367 83.0021 23.0456 82.6694 22.8633C82.3367 22.681 82.0564 22.4258 81.8286 22.0977C81.6053 21.765 81.4253 21.3799 81.2885 20.9424C81.1518 20.5049 81.047 20.0355 80.9741 19.5342V19.1582C81.047 18.6204 81.1518 18.1283 81.2885 17.6816C81.4253 17.2305 81.6053 16.8408 81.8286 16.5127C82.0564 16.18 82.3344 15.9225 82.6626 15.7402C82.9952 15.5579 83.3849 15.4668 83.8315 15.4668C84.3009 15.4668 84.7133 15.5557 85.0688 15.7334C85.4288 15.9111 85.7296 16.1663 85.9712 16.499C86.2172 16.8317 86.4018 17.2282 86.5249 17.6885C86.6525 18.1488 86.7163 18.6592 86.7163 19.2197ZM84.7407 19.3633V19.2197C84.7407 18.9053 84.7133 18.6159 84.6587 18.3516C84.6085 18.0827 84.5265 17.848 84.4126 17.6475C84.3032 17.4469 84.1574 17.292 83.9751 17.1826C83.7973 17.0687 83.5809 17.0117 83.3256 17.0117C83.0568 17.0117 82.8266 17.055 82.6352 17.1416C82.4484 17.2282 82.2957 17.3535 82.1772 17.5176C82.0587 17.6816 81.9699 17.8776 81.9106 18.1055C81.8514 18.3333 81.8149 18.5908 81.8012 18.8779V19.8281C81.824 20.1654 81.8878 20.4684 81.9926 20.7373C82.0975 21.0016 82.2592 21.2113 82.478 21.3662C82.6967 21.5212 82.9838 21.5986 83.3393 21.5986C83.5991 21.5986 83.8178 21.5417 83.9956 21.4277C84.1733 21.3092 84.3169 21.1475 84.4262 20.9424C84.5402 20.7373 84.6199 20.5003 84.6655 20.2314C84.7156 19.9626 84.7407 19.6732 84.7407 19.3633ZM89.9087 17.0254V25.8437H87.9399V15.6035H89.7651L89.9087 17.0254ZM94.5913 19.2197V19.3633C94.5913 19.901 94.5275 20.4001 94.3999 20.8604C94.2768 21.3206 94.0945 21.7217 93.853 22.0635C93.6115 22.4007 93.3107 22.665 92.9506 22.8564C92.5952 23.0433 92.185 23.1367 91.7202 23.1367C91.269 23.1367 90.8771 23.0456 90.5444 22.8633C90.2117 22.681 89.9314 22.4258 89.7036 22.0977C89.4803 21.765 89.3003 21.3799 89.1635 20.9424C89.0268 20.5049 88.922 20.0355 88.8491 19.5342V19.1582C88.922 18.6204 89.0268 18.1283 89.1635 17.6816C89.3003 17.2305 89.4803 16.8408 89.7036 16.5127C89.9314 16.18 90.2094 15.9225 90.5376 15.7402C90.8702 15.5579 91.2599 15.4668 91.7065 15.4668C92.1759 15.4668 92.5883 15.5557 92.9438 15.7334C93.3038 15.9111 93.6046 16.1663 93.8462 16.499C94.0922 16.8317 94.2768 17.2282 94.3999 17.6885C94.5275 18.1488 94.5913 18.6592 94.5913 19.2197ZM92.6157 19.3633V19.2197C92.6157 18.9053 92.5883 18.6159 92.5337 18.3516C92.4835 18.0827 92.4015 17.848 92.2876 17.6475C92.1782 17.4469 92.0324 17.292 91.8501 17.1826C91.6723 17.0687 91.4559 17.0117 91.2006 17.0117C90.9318 17.0117 90.7016 17.055 90.5102 17.1416C90.3234 17.2282 90.1707 17.3535 90.0522 17.5176C89.9337 17.6816 89.8449 17.8776 89.7856 18.1055C89.7264 18.3333 89.6899 18.5908 89.6762 18.8779V19.8281C89.699 20.1654 89.7628 20.4684 89.8676 20.7373C89.9725 21.0016 90.1342 21.2113 90.353 21.3662C90.5717 21.5212 90.8588 21.5986 91.2143 21.5986C91.4741 21.5986 91.6928 21.5417 91.8706 21.4277C92.0483 21.3092 92.1919 21.1475 92.3012 20.9424C92.4152 20.7373 92.4949 20.5003 92.5405 20.2314C92.5906 19.9626 92.6157 19.6732 92.6157 19.3633Z" fill="white"/>
</svg>
