<svg width="103" height="37" viewBox="0 0 103 37" fill="none" xmlns="http://www.w3.org/2000/svg">
<rect width="102.636" height="37" rx="8" fill="url(#paint0_linear_85_2536)"/>
<g clip-path="url(#clip0_85_2536)">
<path fill-rule="evenodd" clip-rule="evenodd" d="M32.4958 27.4487C30.7389 27.4487 29.9224 27.1915 28.5031 26.1629C27.6054 27.3201 24.7627 28.2244 24.6387 26.6772C24.6387 25.5158 24.3822 24.5344 24.0915 23.4629C23.7453 22.1429 23.352 20.6729 23.352 18.5429C23.352 13.4558 27.5157 9.62866 32.4488 9.62866C37.3862 9.62866 41.2549 13.6444 41.2549 18.5901C41.2628 20.9286 40.345 23.1748 38.7029 24.8356C37.0607 26.4964 34.8284 27.4362 32.4958 27.4487ZM32.5685 14.0258C30.166 13.9015 28.2937 15.5687 27.879 18.1829C27.537 20.3472 28.1441 22.9829 28.6613 23.1201C28.9092 23.1801 29.5334 22.6744 29.9224 22.2844C30.5656 22.7299 31.3147 22.9974 32.094 23.0601C33.2906 23.1178 34.4621 22.7025 35.3565 21.9035C36.251 21.1045 36.7971 19.9856 36.8775 18.7872C36.9243 17.5864 36.499 16.4151 35.6931 15.5254C34.8872 14.6358 33.7652 14.0988 32.5685 14.0301V14.0258Z" fill="white"/>
<path d="M49.0949 23.2785H47.1968V14.2785H50.2875L52.3565 20.4542H52.6344L54.7932 14.2785H57.8155V23.2785H55.9132V16.5928H55.6396L53.2884 23.2785H51.617L49.3727 16.5928H49.0949V23.2785ZM63.7532 23.4499C62.911 23.4499 62.1587 23.2528 61.4875 22.8628C60.8237 22.4615 60.2814 21.8867 59.9187 21.1999C59.5427 20.4492 59.3535 19.6184 59.3672 18.7785C59.3672 17.8785 59.551 17.0728 59.9229 16.3699C60.2791 15.6785 60.8229 15.102 61.4918 14.7071C62.1756 14.301 62.9585 14.0933 63.7532 14.1071C64.5013 14.1071 65.1639 14.2657 65.7367 14.5871C66.3138 14.8999 66.784 15.2814 67.1516 15.7314L67.5663 14.2742H69.0582V23.2742H67.5749L67.1602 21.8214C66.7639 22.2931 66.2824 22.6856 65.741 22.9785C65.1297 23.3001 64.4476 23.4622 63.7574 23.4499H63.7532ZM64.2362 21.6671C65.0784 21.6671 65.7538 21.4014 66.2753 20.8699C66.54 20.5921 66.7464 20.2638 66.8822 19.9046C67.018 19.5454 67.0806 19.1624 67.0661 18.7785C67.0661 17.9214 66.8011 17.2314 66.2753 16.6999C66.0115 16.4283 65.6936 16.2154 65.3423 16.0751C64.9909 15.9348 64.6141 15.8703 64.2362 15.8857C63.4069 15.8857 62.7358 16.1557 62.2185 16.6999C61.9563 16.9763 61.7523 17.3028 61.6186 17.6599C61.485 18.017 61.4244 18.3974 61.4405 18.7785C61.4405 19.6314 61.697 20.3299 62.2185 20.8699C62.4817 21.1353 62.7968 21.3432 63.1441 21.4804C63.4914 21.6176 63.8632 21.6812 64.2362 21.6671ZM72.4909 23.2785H70.2466L73.0936 18.6714L70.5715 14.2785H72.82L74.4915 17.3042H74.8207L76.5819 14.2785H78.7749L76.2527 18.5514L79.104 23.2785H76.7871L74.872 19.8671H74.5428L72.4909 23.2785Z" fill="white"/>
</g>
<defs>
<linearGradient id="paint0_linear_85_2536" x1="0" y1="18.5" x2="102.636" y2="18.5" gradientUnits="userSpaceOnUse">
<stop stop-color="#0064FF"/>
<stop offset="1" stop-color="#F70FFF"/>
</linearGradient>
<clipPath id="clip0_85_2536">
<rect width="56" height="18" fill="white" transform="translate(23.3178 9.5)"/>
</clipPath>
</defs>
</svg>
