<svg width="103" height="37" viewBox="0 0 103 37" fill="none" xmlns="http://www.w3.org/2000/svg">
<rect width="102.636" height="37" rx="8" fill="url(#paint0_linear_85_2532)"/>
<g clip-path="url(#clip0_85_2532)">
<path fill-rule="evenodd" clip-rule="evenodd" d="M25.3178 18.5C25.3178 23.4706 21.2884 27.5 16.3178 27.5C11.3473 27.5 7.31783 23.4706 7.31783 18.5C7.31783 13.5294 11.3473 9.5 16.3178 9.5C21.2884 9.5 25.3178 13.5294 25.3178 18.5ZM16.6403 16.1442C15.765 16.5083 14.0154 17.2619 11.3917 18.405C10.9657 18.5744 10.7425 18.7402 10.7222 18.9022C10.6879 19.1761 11.0309 19.284 11.4979 19.4308C11.5615 19.4508 11.6273 19.4715 11.6948 19.4935C12.1543 19.6428 12.7724 19.8176 13.0938 19.8245C13.3853 19.8308 13.7106 19.7106 14.0698 19.464C16.5212 17.8092 17.7866 16.9729 17.8661 16.9548C17.9221 16.9421 17.9998 16.9261 18.0524 16.9729C18.105 17.0197 18.0999 17.1082 18.0943 17.132C18.0603 17.2769 16.7139 18.5286 16.0172 19.1763C15.8 19.3783 15.6459 19.5215 15.6144 19.5542C15.5438 19.6275 15.4719 19.6968 15.4028 19.7635C14.9759 20.175 14.6558 20.4836 15.4205 20.9876C15.7881 21.2298 16.0821 21.4301 16.3755 21.6299C16.696 21.8481 17.0155 22.0657 17.429 22.3367C17.5344 22.4058 17.635 22.4775 17.733 22.5474C18.1059 22.8132 18.4409 23.0521 18.8548 23.014C19.0953 22.9918 19.3437 22.7657 19.4698 22.0913C19.768 20.4974 20.354 17.0438 20.4895 15.6207C20.5014 15.496 20.4864 15.3365 20.4744 15.2664C20.4625 15.1964 20.4374 15.0966 20.3463 15.0227C20.2385 14.9352 20.0721 14.9168 19.9976 14.9181C19.6591 14.924 19.1397 15.1046 16.6403 16.1442Z" fill="white"/>
</g>
<path d="M40.9682 13.0469V23H38.9243V13.0469H40.9682ZM44.0307 13.0469V14.6533H35.9096V13.0469H44.0307ZM47.8383 23.1367C47.2641 23.1367 46.7491 23.0456 46.2934 22.8633C45.8377 22.6764 45.4503 22.4189 45.1313 22.0908C44.8168 21.7627 44.5753 21.3822 44.4067 20.9492C44.2381 20.5117 44.1538 20.0469 44.1538 19.5547V19.2813C44.1538 18.7207 44.2335 18.208 44.393 17.7432C44.5525 17.2783 44.7804 16.875 45.0766 16.5332C45.3774 16.1914 45.742 15.9294 46.1704 15.7471C46.5988 15.5602 47.0818 15.4668 47.6196 15.4668C48.1437 15.4668 48.6085 15.5534 49.0141 15.7266C49.4197 15.8997 49.7592 16.1458 50.0327 16.4648C50.3107 16.7839 50.5203 17.1667 50.6616 17.6133C50.8029 18.0553 50.8735 18.5475 50.8735 19.0898V19.9102H44.9946V18.5977H48.9389V18.4473C48.9389 18.1738 48.8888 17.93 48.7885 17.7158C48.6928 17.4971 48.547 17.3239 48.351 17.1963C48.1551 17.0687 47.9044 17.0049 47.5991 17.0049C47.3393 17.0049 47.116 17.0618 46.9292 17.1758C46.7423 17.2897 46.5896 17.4492 46.4711 17.6543C46.3572 17.8594 46.2706 18.1009 46.2114 18.3789C46.1567 18.6523 46.1293 18.9531 46.1293 19.2813V19.5547C46.1293 19.8509 46.1704 20.1243 46.2524 20.375C46.339 20.6257 46.4598 20.8421 46.6147 21.0244C46.7742 21.2067 46.9656 21.348 47.1889 21.4482C47.4168 21.5485 47.6743 21.5986 47.9614 21.5986C48.3168 21.5986 48.6473 21.5303 48.9526 21.3936C49.2625 21.2523 49.5291 21.0404 49.7524 20.7578L50.7094 21.7969C50.5545 22.0202 50.3426 22.2344 50.0737 22.4395C49.8094 22.6445 49.4904 22.8132 49.1167 22.9453C48.743 23.0729 48.3168 23.1367 47.8383 23.1367ZM54.0727 12.5V23H52.0971V12.5H54.0727ZM59.104 23.1367C58.5297 23.1367 58.0148 23.0456 57.559 22.8633C57.1033 22.6764 56.7159 22.4189 56.3969 22.0908C56.0825 21.7627 55.8409 21.3822 55.6723 20.9492C55.5037 20.5117 55.4194 20.0469 55.4194 19.5547V19.2813C55.4194 18.7207 55.4991 18.208 55.6586 17.7432C55.8182 17.2783 56.046 16.875 56.3422 16.5332C56.643 16.1914 57.0076 15.9294 57.436 15.7471C57.8644 15.5602 58.3474 15.4668 58.8852 15.4668C59.4093 15.4668 59.8741 15.5534 60.2797 15.7266C60.6853 15.8997 61.0249 16.1458 61.2983 16.4648C61.5763 16.7839 61.7859 17.1667 61.9272 17.6133C62.0685 18.0553 62.1391 18.5475 62.1391 19.0898V19.9102H56.2602V18.5977H60.2045V18.4473C60.2045 18.1738 60.1544 17.93 60.0542 17.7158C59.9584 17.4971 59.8126 17.3239 59.6167 17.1963C59.4207 17.0687 59.17 17.0049 58.8647 17.0049C58.6049 17.0049 58.3816 17.0618 58.1948 17.1758C58.0079 17.2897 57.8553 17.4492 57.7368 17.6543C57.6228 17.8594 57.5362 18.1009 57.477 18.3789C57.4223 18.6523 57.395 18.9531 57.395 19.2813V19.5547C57.395 19.8509 57.436 20.1243 57.518 20.375C57.6046 20.6257 57.7254 20.8421 57.8803 21.0244C58.0398 21.2067 58.2312 21.348 58.4545 21.4482C58.6824 21.5485 58.9399 21.5986 59.227 21.5986C59.5825 21.5986 59.9129 21.5303 60.2182 21.3936C60.5281 21.2523 60.7947 21.0404 61.018 20.7578L61.9751 21.7969C61.8201 22.0202 61.6082 22.2344 61.3393 22.4395C61.075 22.6445 60.756 22.8132 60.3823 22.9453C60.0086 23.0729 59.5825 23.1367 59.104 23.1367ZM67.9428 15.6035H69.727V22.7539C69.727 23.4284 69.5766 24.0003 69.2758 24.4697C68.9796 24.9437 68.5649 25.3014 68.0317 25.543C67.4985 25.7891 66.8787 25.9121 66.1723 25.9121C65.8624 25.9121 65.5343 25.8711 65.1879 25.7891C64.8461 25.707 64.518 25.5794 64.2036 25.4062C63.8937 25.2331 63.6339 25.0143 63.4243 24.75L64.2924 23.5879C64.5203 23.8522 64.7846 24.0573 65.0854 24.2031C65.3862 24.3535 65.7189 24.4287 66.0835 24.4287C66.4389 24.4287 66.7397 24.3626 66.9858 24.2305C67.2319 24.1029 67.421 23.9137 67.5532 23.6631C67.6853 23.417 67.7514 23.1185 67.7514 22.7676V17.3125L67.9428 15.6035ZM62.9663 19.3906V19.2471C62.9663 18.682 63.0346 18.1693 63.1713 17.709C63.3126 17.2441 63.5109 16.8454 63.7661 16.5127C64.0258 16.18 64.3403 15.9225 64.7094 15.7402C65.0786 15.5579 65.4956 15.4668 65.9604 15.4668C66.4526 15.4668 66.865 15.5579 67.1977 15.7402C67.5304 15.9225 67.8038 16.1823 68.018 16.5195C68.2322 16.8522 68.3986 17.2464 68.517 17.7021C68.6401 18.1533 68.7358 18.6478 68.8042 19.1855V19.5C68.7358 20.015 68.6333 20.4935 68.4965 20.9355C68.3598 21.3776 68.1798 21.765 67.9565 22.0977C67.7332 22.4258 67.4552 22.681 67.1225 22.8633C66.7944 23.0456 66.4025 23.1367 65.9467 23.1367C65.491 23.1367 65.0786 23.0433 64.7094 22.8564C64.3448 22.6696 64.0327 22.4076 63.7729 22.0703C63.5131 21.7331 63.3126 21.3366 63.1713 20.8809C63.0346 20.4251 62.9663 19.9284 62.9663 19.3906ZM64.935 19.2471V19.3906C64.935 19.696 64.9646 19.9808 65.0239 20.2451C65.0831 20.5094 65.1743 20.7441 65.2973 20.9492C65.4249 21.1497 65.5821 21.307 65.769 21.4209C65.9604 21.5303 66.186 21.585 66.4458 21.585C66.8058 21.585 67.0997 21.5098 67.3276 21.3594C67.5555 21.2044 67.7264 20.9925 67.8403 20.7236C67.9542 20.4548 68.0203 20.1449 68.0385 19.7939V18.8984C68.0294 18.6113 67.9907 18.3538 67.9223 18.126C67.854 17.8936 67.7583 17.6953 67.6352 17.5313C67.5122 17.3672 67.3527 17.2396 67.1567 17.1484C66.9607 17.0573 66.7283 17.0117 66.4594 17.0117C66.1997 17.0117 65.9741 17.071 65.7827 17.1895C65.5958 17.3034 65.4386 17.4606 65.311 17.6611C65.1879 17.8617 65.0945 18.0986 65.0307 18.3721C64.9669 18.641 64.935 18.9326 64.935 19.2471ZM73.227 17.2168V23H71.2583V15.6035H73.1108L73.227 17.2168ZM75.4555 15.5557L75.4213 17.3809C75.3256 17.3672 75.2094 17.3558 75.0727 17.3467C74.9405 17.333 74.8198 17.3262 74.7104 17.3262C74.4324 17.3262 74.1909 17.3626 73.9858 17.4355C73.7853 17.5039 73.6167 17.6064 73.4799 17.7432C73.3478 17.8799 73.2475 18.0462 73.1792 18.2422C73.1154 18.4382 73.0789 18.6615 73.0698 18.9121L72.6733 18.7891C72.6733 18.3105 72.7211 17.8708 72.8168 17.4697C72.9126 17.0641 73.0515 16.7109 73.2338 16.4102C73.4207 16.1094 73.6486 15.877 73.9174 15.7129C74.1863 15.5488 74.4939 15.4668 74.8403 15.4668C74.9497 15.4668 75.0613 15.4759 75.1752 15.4941C75.2892 15.5078 75.3826 15.5283 75.4555 15.5557ZM80.145 21.332V18.0371C80.145 17.8001 80.1062 17.5973 80.0288 17.4287C79.9513 17.2555 79.8305 17.1211 79.6665 17.0254C79.507 16.9297 79.2996 16.8818 79.0444 16.8818C78.8256 16.8818 78.6365 16.9206 78.477 16.998C78.3175 17.071 78.1945 17.1781 78.1079 17.3193C78.0213 17.4561 77.978 17.6178 77.978 17.8047H76.0092C76.0092 17.4902 76.0821 17.1917 76.228 16.9092C76.3738 16.6266 76.5857 16.3783 76.8637 16.1641C77.1417 15.9453 77.4721 15.7744 77.8549 15.6514C78.2423 15.5283 78.6752 15.4668 79.1538 15.4668C79.728 15.4668 80.2384 15.5625 80.685 15.7539C81.1316 15.9453 81.4825 16.2324 81.7377 16.6152C81.9975 16.998 82.1274 17.4766 82.1274 18.0508V21.2158C82.1274 21.6214 82.1525 21.9541 82.2026 22.2139C82.2527 22.4691 82.3256 22.6924 82.4213 22.8838V23H80.4321C80.3364 22.7995 80.2635 22.5488 80.2133 22.248C80.1678 21.9427 80.145 21.6374 80.145 21.332ZM80.4047 18.4951L80.4184 19.6094H79.3178C79.0581 19.6094 78.8325 19.639 78.6411 19.6982C78.4497 19.7575 78.2924 19.8418 78.1694 19.9512C78.0463 20.056 77.9552 20.179 77.896 20.3203C77.8413 20.4616 77.8139 20.6165 77.8139 20.7852C77.8139 20.9538 77.8527 21.1064 77.9301 21.2432C78.0076 21.3753 78.1193 21.4801 78.2651 21.5576C78.4109 21.6305 78.5818 21.667 78.7778 21.667C79.074 21.667 79.3315 21.6077 79.5502 21.4893C79.769 21.3708 79.9376 21.2249 80.0561 21.0518C80.1792 20.8786 80.243 20.7145 80.2475 20.5596L80.767 21.3936C80.6941 21.5804 80.5939 21.7741 80.4663 21.9746C80.3432 22.1751 80.186 22.3643 79.9946 22.542C79.8032 22.7152 79.573 22.8587 79.3042 22.9727C79.0353 23.082 78.7163 23.1367 78.3471 23.1367C77.8777 23.1367 77.4516 23.0433 77.0688 22.8564C76.6905 22.665 76.3898 22.403 76.1665 22.0703C75.9477 21.7331 75.8383 21.3503 75.8383 20.9219C75.8383 20.5345 75.9112 20.1904 76.0571 19.8896C76.2029 19.5889 76.4171 19.3359 76.6997 19.1309C76.9868 18.9212 77.3445 18.764 77.7729 18.6592C78.2013 18.5498 78.698 18.4951 79.2631 18.4951H80.4047ZM85.6137 17.1348V23H83.6381V15.6035H85.4907L85.6137 17.1348ZM85.3403 19.042H84.7934C84.7934 18.527 84.8549 18.0531 84.978 17.6201C85.1056 17.1826 85.2902 16.8044 85.5317 16.4854C85.7778 16.1618 86.0808 15.9111 86.4409 15.7334C86.8009 15.5557 87.2179 15.4668 87.6918 15.4668C88.02 15.4668 88.3208 15.5169 88.5942 15.6172C88.8676 15.7129 89.1023 15.8656 89.2983 16.0752C89.4988 16.2803 89.6538 16.5492 89.7631 16.8818C89.8725 17.21 89.9272 17.6042 89.9272 18.0645V23H87.9584V18.2832C87.9584 17.946 87.9129 17.6862 87.8217 17.5039C87.7306 17.3216 87.6007 17.194 87.4321 17.1211C87.268 17.0482 87.0698 17.0117 86.8374 17.0117C86.5821 17.0117 86.3588 17.0641 86.1674 17.1689C85.9806 17.2738 85.8256 17.4196 85.7026 17.6064C85.5795 17.7887 85.4884 18.0029 85.4292 18.249C85.3699 18.4951 85.3403 18.7594 85.3403 19.042ZM89.7426 18.8164L89.0385 18.9053C89.0385 18.4222 89.0978 17.9733 89.2163 17.5586C89.3393 17.1439 89.5193 16.7793 89.7563 16.4648C89.9978 16.1504 90.2963 15.9066 90.6518 15.7334C91.0073 15.5557 91.4174 15.4668 91.8823 15.4668C92.2377 15.4668 92.5613 15.5192 92.853 15.624C93.1446 15.7243 93.393 15.8861 93.5981 16.1094C93.8077 16.3281 93.9672 16.6152 94.0766 16.9707C94.1905 17.3262 94.2475 17.7614 94.2475 18.2764V23H92.2719V18.2764C92.2719 17.9346 92.2264 17.6748 92.1352 17.4971C92.0486 17.3148 91.921 17.1895 91.7524 17.1211C91.5883 17.0482 91.3924 17.0117 91.1645 17.0117C90.9275 17.0117 90.7202 17.0596 90.5424 17.1553C90.3647 17.2464 90.2166 17.374 90.0981 17.5381C89.9796 17.7021 89.8907 17.8936 89.8315 18.1123C89.7723 18.3265 89.7426 18.5612 89.7426 18.8164Z" fill="white"/>
<defs>
<linearGradient id="paint0_linear_85_2532" x1="51.3178" y1="0" x2="51.3178" y2="36.7256" gradientUnits="userSpaceOnUse">
<stop stop-color="#2AABEE"/>
<stop offset="1" stop-color="#229ED9"/>
</linearGradient>
<clipPath id="clip0_85_2532">
<rect width="18" height="18" fill="white" transform="translate(7.31783 9.5)"/>
</clipPath>
</defs>
</svg>
