<svg width="82" height="32" viewBox="0 0 82 32" fill="none" xmlns="http://www.w3.org/2000/svg">
<g clip-path="url(#clip0_381_95)">
<path fill-rule="evenodd" clip-rule="evenodd" d="M32.9874 7.9574C37.8192 5.84056 41.0412 4.445 42.6533 3.77074C47.2563 1.84558 48.2127 1.51116 48.8361 1.50012C48.9732 1.49769 49.2798 1.53186 49.4784 1.69389C49.6461 1.83071 49.6922 2.01553 49.7143 2.14524C49.7364 2.27496 49.7639 2.57046 49.742 2.80136C49.4926 5.43675 48.4133 11.8322 47.8642 14.7838C47.6318 16.0328 47.1744 16.4516 46.7315 16.4926C45.7689 16.5816 45.038 15.8529 44.1058 15.2384C42.647 14.2769 41.8229 13.6783 40.4069 12.74C38.7705 11.6556 39.8313 11.0596 40.7639 10.0856C41.008 9.83071 45.2488 5.95188 45.3309 5.60001C45.3412 5.556 45.3507 5.39197 45.2538 5.30535C45.1569 5.21873 45.0139 5.24835 44.9106 5.27191C44.7643 5.3053 42.4339 6.85418 37.9194 9.91854C37.2579 10.3753 36.6587 10.5978 36.1219 10.5862C35.5301 10.5733 34.3917 10.2497 33.5455 9.97308C32.5075 9.6338 31.6825 9.45442 31.7544 8.87821C31.7918 8.57809 32.2028 8.27115 32.9874 7.9574Z" fill="#AEAEAE"/>
</g>
<path d="M20.8413 20.56H17.9013V19.6H24.8013V20.56H21.8613V28H20.8413V20.56ZM28.4599 26.656L28.7599 27.412C28.2399 27.884 27.5639 28.12 26.7319 28.12C25.8519 28.12 25.1519 27.864 24.6319 27.352C24.1039 26.84 23.8399 26.156 23.8399 25.3C23.8399 24.492 24.0879 23.82 24.5839 23.284C25.0719 22.748 25.7519 22.48 26.6239 22.48C27.3439 22.48 27.9399 22.712 28.4119 23.176C28.8919 23.632 29.1319 24.224 29.1319 24.952C29.1319 25.184 29.1119 25.4 29.0719 25.6H24.9199C24.9599 26.104 25.1479 26.5 25.4839 26.788C25.8279 27.076 26.2679 27.22 26.8039 27.22C27.5079 27.22 28.0599 27.032 28.4599 26.656ZM26.5759 23.38C26.1039 23.38 25.7119 23.512 25.3999 23.776C25.0959 24.04 24.9159 24.388 24.8599 24.82H28.1359C28.1119 24.372 27.9599 24.02 27.6799 23.764C27.4079 23.508 27.0399 23.38 26.5759 23.38ZM30.4343 26.56V19.6H31.3943V26.128C31.3943 26.84 31.6063 27.196 32.0303 27.196C32.2383 27.196 32.4663 27.116 32.7143 26.956L32.9303 27.688C32.5863 27.96 32.1623 28.096 31.6583 28.096C30.8423 28.096 30.4343 27.584 30.4343 26.56ZM38.1748 26.656L38.4748 27.412C37.9548 27.884 37.2788 28.12 36.4468 28.12C35.5668 28.12 34.8668 27.864 34.3468 27.352C33.8188 26.84 33.5548 26.156 33.5548 25.3C33.5548 24.492 33.8028 23.82 34.2988 23.284C34.7868 22.748 35.4668 22.48 36.3388 22.48C37.0588 22.48 37.6548 22.712 38.1268 23.176C38.6068 23.632 38.8468 24.224 38.8468 24.952C38.8468 25.184 38.8268 25.4 38.7868 25.6H34.6348C34.6748 26.104 34.8628 26.5 35.1988 26.788C35.5428 27.076 35.9828 27.22 36.5188 27.22C37.2228 27.22 37.7748 27.032 38.1748 26.656ZM36.2908 23.38C35.8188 23.38 35.4268 23.512 35.1148 23.776C34.8108 24.04 34.6308 24.388 34.5748 24.82H37.8508C37.8268 24.372 37.6748 24.02 37.3948 23.764C37.1228 23.508 36.7548 23.38 36.2908 23.38ZM39.3348 28.78C39.3348 28.364 39.4868 28.016 39.7908 27.736C40.0948 27.456 40.5188 27.256 41.0628 27.136C40.9748 27.024 40.9308 26.876 40.9308 26.692C40.9308 26.508 40.9788 26.356 41.0748 26.236C40.6908 26.084 40.3908 25.852 40.1748 25.54C39.9668 25.228 39.8628 24.868 39.8628 24.46C39.8628 23.9 40.0628 23.432 40.4628 23.056C40.8708 22.672 41.4068 22.48 42.0708 22.48C42.5828 22.48 43.0388 22.612 43.4388 22.876L45.0228 22.492L45.0468 23.272L44.0268 23.524C44.1948 23.804 44.2788 24.116 44.2788 24.46C44.2788 25.012 44.0748 25.476 43.6668 25.852C43.2668 26.22 42.7348 26.404 42.0708 26.404C41.8868 26.404 41.7668 26.4 41.7108 26.392C41.6708 26.488 41.6508 26.588 41.6508 26.692C41.6508 26.836 41.6868 26.956 41.7588 27.052C41.7748 27.052 41.8228 27.052 41.9028 27.052C41.9908 27.044 42.0508 27.04 42.0828 27.04C42.9228 27.04 43.5908 27.192 44.0868 27.496C44.5828 27.792 44.8308 28.22 44.8308 28.78C44.8308 29.324 44.5828 29.744 44.0868 30.04C43.5908 30.344 42.9228 30.496 42.0828 30.496C41.2348 30.496 40.5628 30.348 40.0668 30.052C39.5788 29.764 39.3348 29.34 39.3348 28.78ZM43.9308 28.78C43.9308 28.484 43.7668 28.248 43.4388 28.072C43.1108 27.904 42.6588 27.82 42.0828 27.82C41.5068 27.82 41.0548 27.904 40.7268 28.072C40.3988 28.248 40.2348 28.484 40.2348 28.78C40.2348 29.076 40.3988 29.304 40.7268 29.464C41.0548 29.632 41.5068 29.716 42.0828 29.716C42.6588 29.716 43.1108 29.636 43.4388 29.476C43.7668 29.316 43.9308 29.084 43.9308 28.78ZM40.7628 24.46C40.7628 24.796 40.8828 25.076 41.1228 25.3C41.3708 25.516 41.6868 25.624 42.0708 25.624C42.4548 25.624 42.7668 25.516 43.0068 25.3C43.2548 25.084 43.3788 24.804 43.3788 24.46C43.3788 24.116 43.2588 23.832 43.0188 23.608C42.7708 23.376 42.4548 23.26 42.0708 23.26C41.6868 23.26 41.3708 23.376 41.1228 23.608C40.8828 23.832 40.7628 24.116 40.7628 24.46ZM46.9685 28H46.0085V22.6H46.9685V23.236C47.2885 22.748 47.7405 22.504 48.3245 22.504C48.7005 22.504 48.9805 22.572 49.1645 22.708L48.8285 23.608C48.5965 23.472 48.3525 23.404 48.0965 23.404C47.6085 23.404 47.2325 23.66 46.9685 24.172V28ZM50.3747 23.74L50.1227 22.972C50.6587 22.644 51.2587 22.48 51.9227 22.48C52.6507 22.48 53.1787 22.66 53.5067 23.02C53.8347 23.38 53.9987 23.936 53.9987 24.688V28H53.0867V27.304C52.6627 27.824 52.0867 28.084 51.3587 28.084C50.8627 28.084 50.4627 27.936 50.1587 27.64C49.8547 27.336 49.7027 26.928 49.7027 26.416C49.7027 25.888 49.8907 25.472 50.2667 25.168C50.6427 24.856 51.1347 24.7 51.7427 24.7C52.3107 24.7 52.7587 24.816 53.0867 25.048C53.0867 24.44 53.0027 24.004 52.8347 23.74C52.6667 23.476 52.3427 23.344 51.8627 23.344C51.3747 23.344 50.8787 23.476 50.3747 23.74ZM51.6947 27.22C52.2307 27.22 52.6947 26.988 53.0867 26.524V25.84C52.7507 25.6 52.3467 25.48 51.8747 25.48C51.5467 25.48 51.2707 25.56 51.0467 25.72C50.8307 25.872 50.7227 26.088 50.7227 26.368C50.7227 26.632 50.8067 26.84 50.9747 26.992C51.1507 27.144 51.3907 27.22 51.6947 27.22ZM63.6222 24.46V28H62.6622V24.724C62.6622 23.844 62.2742 23.404 61.4982 23.404C61.1862 23.404 60.9022 23.476 60.6462 23.62C60.3982 23.756 60.2102 23.944 60.0822 24.184C60.0902 24.224 60.0942 24.352 60.0942 24.568V28H59.1342V24.52C59.1342 24.176 59.0302 23.904 58.8222 23.704C58.6222 23.504 58.3422 23.404 57.9822 23.404C57.3822 23.404 56.9102 23.648 56.5662 24.136V28H55.6062V22.6H56.5662V23.284C56.7662 23.052 57.0262 22.864 57.3462 22.72C57.6742 22.576 58.0102 22.504 58.3542 22.504C58.7622 22.504 59.1102 22.588 59.3982 22.756C59.6862 22.924 59.8822 23.152 59.9862 23.44C60.1862 23.152 60.4542 22.924 60.7902 22.756C61.1262 22.588 61.4902 22.504 61.8822 22.504C63.0422 22.504 63.6222 23.156 63.6222 24.46Z" fill="#AEAEAE"/>
<defs>
<clipPath id="clip0_381_95">
<rect width="81.75" height="18" fill="white"/>
</clipPath>
</defs>
</svg>
