<svg width="82" height="32" viewBox="0 0 82 32" fill="none" xmlns="http://www.w3.org/2000/svg">
<path fill-rule="evenodd" clip-rule="evenodd" d="M37.294 14.462C38.4167 15.1253 39.4884 15.5227 40.9058 15.5233C44.5551 15.5233 47.5279 12.5673 47.5299 8.93333C47.5313 5.292 44.5726 2.34 40.9112 2.33867C37.2592 2.33867 34.2884 5.29467 34.287 8.928C34.2864 10.4113 34.7231 11.522 35.4566 12.684L34.7874 15.116L37.294 14.462ZM44.5397 10.588C44.7394 10.6873 44.872 10.7367 44.9216 10.8193C44.9718 10.902 44.9718 11.2987 44.8057 11.762C44.6395 12.2247 43.8444 12.6473 43.462 12.704C43.119 12.7547 42.6849 12.776 42.208 12.6253C41.9193 12.534 41.5482 12.412 41.0733 12.208C39.0765 11.35 37.7729 9.34867 37.6731 9.21667L37.6708 9.21352C37.5632 9.07038 36.8606 8.13527 36.8606 7.16733C36.8606 6.192 37.375 5.71333 37.5572 5.51467C37.7394 5.316 37.9551 5.26667 38.0878 5.26667L38.4696 5.27333C38.5915 5.27933 38.7556 5.22733 38.9177 5.61333C39.0832 6.01 39.481 6.98533 39.5313 7.084C39.5815 7.18333 39.6143 7.29933 39.548 7.43133C39.481 7.564 39.4482 7.64667 39.3471 7.76133C39.2473 7.87733 39.1381 8.02 39.0483 8.10867C38.9492 8.20733 38.8454 8.31467 38.9612 8.51267C39.0771 8.71133 39.477 9.36 40.0685 9.88533C40.8288 10.5607 41.4705 10.7693 41.6694 10.8687C41.8684 10.968 41.9849 10.9513 42.1008 10.8193C42.2167 10.6873 42.5985 10.2407 42.7311 10.0427C42.8644 9.844 42.9971 9.87733 43.1793 9.94333C43.3621 10.0093 44.3408 10.4887 44.5397 10.588Z" fill="#AEAEAE"/>
<path fill-rule="evenodd" clip-rule="evenodd" d="M34.005 12.8913L32.875 17L37.0984 15.8973C38.2619 16.5293 39.5755 16.862 40.9085 16.8627C45.2993 16.8627 48.873 13.306 48.875 8.93467C48.8757 6.816 48.0477 4.824 46.5439 3.32533C45.0394 1.82667 43.0393 1.00067 40.9085 1C36.5176 1 32.944 4.55667 32.942 8.92733C32.9413 10.3253 33.3077 11.6887 34.005 12.8913ZM40.9058 15.5233C39.4884 15.5227 38.4167 15.1253 37.294 14.462L34.7874 15.116L35.4566 12.684C34.7231 11.522 34.2864 10.4113 34.287 8.928C34.2884 5.29467 37.2592 2.33867 40.9112 2.33867C44.5726 2.34 47.5313 5.292 47.5299 8.93333C47.5279 12.5673 44.5551 15.5233 40.9058 15.5233Z" fill="#AEAEAE"/>
<path d="M23.9732 19.6H24.9692L22.5452 28H21.6092L19.3052 21.244L17.0492 28H16.1132L13.5692 19.6H14.7212L16.6772 26.284L18.8492 19.6H19.8332L22.0652 26.284L23.9732 19.6ZM26.9099 28H25.9499V19.6H26.9099V23.224C27.3899 22.744 27.9779 22.504 28.6739 22.504C30.1699 22.504 30.9179 23.304 30.9179 24.904V28H29.9579V25.036C29.9579 23.948 29.4539 23.404 28.4459 23.404C28.1659 23.404 27.8819 23.468 27.5939 23.596C27.3139 23.724 27.0859 23.888 26.9099 24.088V28ZM32.8239 23.74L32.5719 22.972C33.1079 22.644 33.7079 22.48 34.3719 22.48C35.0999 22.48 35.6279 22.66 35.9559 23.02C36.2839 23.38 36.4479 23.936 36.4479 24.688V28H35.5359V27.304C35.1119 27.824 34.5359 28.084 33.8079 28.084C33.3119 28.084 32.9119 27.936 32.6079 27.64C32.3039 27.336 32.1519 26.928 32.1519 26.416C32.1519 25.888 32.3399 25.472 32.7159 25.168C33.0919 24.856 33.5839 24.7 34.1919 24.7C34.7599 24.7 35.2079 24.816 35.5359 25.048C35.5359 24.44 35.4519 24.004 35.2839 23.74C35.1159 23.476 34.7919 23.344 34.3119 23.344C33.8239 23.344 33.3279 23.476 32.8239 23.74ZM34.1439 27.22C34.6799 27.22 35.1439 26.988 35.5359 26.524V25.84C35.1999 25.6 34.7959 25.48 34.3239 25.48C33.9959 25.48 33.7199 25.56 33.4959 25.72C33.2799 25.872 33.1719 26.088 33.1719 26.368C33.1719 26.632 33.2559 26.84 33.4239 26.992C33.5999 27.144 33.8399 27.22 34.1439 27.22ZM37.9354 25.948V21.1H38.8954V22.6H40.8754V23.5H38.8954V25.852C38.8954 26.748 39.2154 27.196 39.8554 27.196C40.1674 27.196 40.4514 27.096 40.7074 26.896L41.0074 27.64C40.6314 27.944 40.1714 28.096 39.6274 28.096C39.0434 28.096 38.6154 27.92 38.3434 27.568C38.0714 27.216 37.9354 26.676 37.9354 25.948ZM45.0219 26.536C45.0219 26.344 44.9219 26.184 44.7219 26.056C44.5219 25.928 44.2779 25.824 43.9899 25.744C43.7099 25.656 43.4259 25.556 43.1379 25.444C42.8499 25.332 42.6059 25.156 42.4059 24.916C42.2059 24.668 42.1059 24.364 42.1059 24.004C42.1059 23.548 42.2739 23.18 42.6099 22.9C42.9459 22.62 43.3899 22.48 43.9419 22.48C44.7339 22.48 45.3539 22.692 45.8019 23.116L45.3459 23.848C44.9459 23.496 44.4939 23.32 43.9899 23.32C43.7339 23.32 43.5259 23.384 43.3659 23.512C43.2059 23.64 43.1259 23.8 43.1259 23.992C43.1259 24.2 43.2259 24.372 43.4259 24.508C43.6259 24.636 43.8659 24.744 44.1459 24.832C44.4339 24.912 44.7219 25.008 45.0099 25.12C45.2979 25.224 45.5419 25.392 45.7419 25.624C45.9419 25.856 46.0419 26.144 46.0419 26.488C46.0419 27.024 45.8419 27.432 45.4419 27.712C45.0499 27.984 44.5539 28.12 43.9539 28.12C43.5299 28.12 43.1259 28.032 42.7419 27.856C42.3499 27.672 42.0899 27.48 41.9619 27.28L42.5019 26.596C42.6619 26.78 42.8939 26.94 43.1979 27.076C43.5179 27.212 43.8059 27.28 44.0619 27.28C44.3419 27.28 44.5699 27.216 44.7459 27.088C44.9299 26.952 45.0219 26.768 45.0219 26.536ZM47.7901 28H46.7581L50.3701 19.552H51.2461L54.8581 28H53.7661L52.6861 25.456H48.8581L47.7901 28ZM52.2901 24.496L50.7781 20.908L49.2661 24.496H52.2901ZM56.8631 30.4H55.9031V22.6H56.8631V23.236C57.0551 23.012 57.3191 22.832 57.6551 22.696C57.9911 22.552 58.3391 22.48 58.6991 22.48C59.4671 22.48 60.0711 22.736 60.5111 23.248C60.9671 23.752 61.1951 24.408 61.1951 25.216C61.1951 26.04 60.9351 26.732 60.4151 27.292C59.9031 27.844 59.2271 28.12 58.3871 28.12C57.7391 28.12 57.2311 27.996 56.8631 27.748V30.4ZM58.4231 23.38C57.7831 23.38 57.2631 23.628 56.8631 24.124V26.8C57.2871 27.08 57.7671 27.22 58.3031 27.22C58.8711 27.22 59.3231 27.04 59.6591 26.68C60.0031 26.312 60.1751 25.836 60.1751 25.252C60.1751 24.684 60.0191 24.232 59.7071 23.896C59.3951 23.552 58.9671 23.38 58.4231 23.38ZM63.531 30.4H62.571V22.6H63.531V23.236C63.723 23.012 63.987 22.832 64.323 22.696C64.659 22.552 65.007 22.48 65.367 22.48C66.135 22.48 66.739 22.736 67.179 23.248C67.635 23.752 67.863 24.408 67.863 25.216C67.863 26.04 67.603 26.732 67.083 27.292C66.571 27.844 65.895 28.12 65.055 28.12C64.407 28.12 63.899 27.996 63.531 27.748V30.4ZM65.091 23.38C64.451 23.38 63.931 23.628 63.531 24.124V26.8C63.955 27.08 64.435 27.22 64.971 27.22C65.539 27.22 65.991 27.04 66.327 26.68C66.671 26.312 66.843 25.836 66.843 25.252C66.843 24.684 66.687 24.232 66.375 23.896C66.063 23.552 65.635 23.38 65.091 23.38Z" fill="#AEAEAE"/>
</svg>
