<svg width="48" height="48" viewBox="0 0 48 48" fill="none" xmlns="http://www.w3.org/2000/svg">
<g clip-path="url(#clip0_374_168)">
<path d="M47.7778 23.8889C47.7778 10.6949 37.0829 0 23.8889 0C10.6949 0 0 10.6949 0 23.8889C0 37.0829 10.6949 47.7778 23.8889 47.7778C37.0829 47.7778 47.7778 37.0829 47.7778 23.8889Z" fill="#F8604A"/>
<path d="M32.25 38.2626H27.4318V13.3778H25.0043C20.8624 13.3778 18.7932 15.4487 18.7932 18.5543C18.7932 22.0182 20.1861 23.729 23.2917 25.8L25.721 27.5126L18.8318 38.2222H13.2988L19.8682 28.5472C16.0846 25.8 14.0154 23.3707 14.0154 18.8722C14.0154 13.3373 17.7972 9.55554 25.0833 9.55554H32.25V38.2626Z" fill="white"/>
</g>
<defs>
<clipPath id="clip0_374_168">
<rect width="47.7778" height="47.7778" fill="white"/>
</clipPath>
</defs>
</svg>
